<mxfile host="app.diagrams.net" modified="2021-04-12T03:41:52.246Z" agent="5.0 (Windows NT 10.0; Win64; x64) AppleWebKit/537.36 (KHTML, like Gecko) Chrome/89.0.4389.114 Safari/537.36 Edg/89.0.774.68" etag="_8-mQvY4utFce1aywfPb" version="14.5.10" type="github">
  <diagram id="rhDfWDfLSwDpd_v7uB-a" name="Page-1">
    <mxGraphModel dx="1888" dy="532" grid="1" gridSize="10" guides="1" tooltips="1" connect="1" arrows="1" fold="1" page="1" pageScale="1" pageWidth="850" pageHeight="1100" math="0" shadow="0">
      <root>
        <mxCell id="0" />
        <mxCell id="1" parent="0" />
        <mxCell id="4VY2o60xxXtO9w1z9V4P-1" value="" style="rounded=0;whiteSpace=wrap;html=1;fillColor=#f8cecc;strokeColor=#b85450;" parent="1" vertex="1">
          <mxGeometry x="40" y="360" width="160" height="80" as="geometry" />
        </mxCell>
        <mxCell id="4VY2o60xxXtO9w1z9V4P-3" value="HI" style="rounded=0;whiteSpace=wrap;html=1;fillColor=#f8cecc;strokeColor=#b85450;" parent="1" vertex="1">
          <mxGeometry x="280" y="240" width="160" height="80" as="geometry" />
        </mxCell>
        <mxCell id="4VY2o60xxXtO9w1z9V4P-5" value="a" style="text;html=1;strokeColor=none;fillColor=none;align=center;verticalAlign=middle;whiteSpace=wrap;rounded=0;" parent="1" vertex="1">
          <mxGeometry x="40" y="360" width="40" height="40" as="geometry" />
        </mxCell>
        <mxCell id="4VY2o60xxXtO9w1z9V4P-6" value="b" style="text;html=1;strokeColor=none;fillColor=none;align=center;verticalAlign=middle;whiteSpace=wrap;rounded=0;" parent="1" vertex="1">
          <mxGeometry x="40" y="410" width="40" height="30" as="geometry" />
        </mxCell>
        <mxCell id="4VY2o60xxXtO9w1z9V4P-7" value="MULT" style="text;html=1;strokeColor=none;fillColor=none;align=center;verticalAlign=middle;whiteSpace=wrap;rounded=0;" parent="1" vertex="1">
          <mxGeometry x="100" y="375" width="40" height="50" as="geometry" />
        </mxCell>
        <mxCell id="Rw02Lwgvao5xvRSZ4GDr-4" style="edgeStyle=orthogonalEdgeStyle;rounded=0;orthogonalLoop=1;jettySize=auto;html=1;exitX=1;exitY=0.25;exitDx=0;exitDy=0;entryX=0;entryY=0.5;entryDx=0;entryDy=0;fillColor=#f8cecc;strokeColor=#b85450;" edge="1" parent="1" source="4VY2o60xxXtO9w1z9V4P-8" target="4VY2o60xxXtO9w1z9V4P-9">
          <mxGeometry relative="1" as="geometry">
            <Array as="points">
              <mxPoint x="250" y="390" />
              <mxPoint x="250" y="255" />
            </Array>
          </mxGeometry>
        </mxCell>
        <mxCell id="4VY2o60xxXtO9w1z9V4P-8" value="y" style="text;html=1;strokeColor=none;fillColor=none;align=center;verticalAlign=middle;whiteSpace=wrap;rounded=0;" parent="1" vertex="1">
          <mxGeometry x="180" y="380" width="20" height="40" as="geometry" />
        </mxCell>
        <mxCell id="4VY2o60xxXtO9w1z9V4P-9" value="d" style="text;html=1;strokeColor=none;fillColor=none;align=center;verticalAlign=middle;whiteSpace=wrap;rounded=0;" parent="1" vertex="1">
          <mxGeometry x="280" y="240" width="30" height="30" as="geometry" />
        </mxCell>
        <mxCell id="Rw02Lwgvao5xvRSZ4GDr-13" style="edgeStyle=orthogonalEdgeStyle;rounded=0;orthogonalLoop=1;jettySize=auto;html=1;entryX=0;entryY=0.5;entryDx=0;entryDy=0;fillColor=#f8cecc;strokeColor=#b85450;exitX=0;exitY=0.25;exitDx=0;exitDy=0;" edge="1" parent="1" source="4VY2o60xxXtO9w1z9V4P-14" target="4VY2o60xxXtO9w1z9V4P-10">
          <mxGeometry relative="1" as="geometry">
            <mxPoint x="260" y="500" as="sourcePoint" />
            <Array as="points">
              <mxPoint x="260" y="505" />
              <mxPoint x="260" y="300" />
            </Array>
          </mxGeometry>
        </mxCell>
        <mxCell id="4VY2o60xxXtO9w1z9V4P-10" value="We" style="text;html=1;strokeColor=none;fillColor=none;align=center;verticalAlign=middle;whiteSpace=wrap;rounded=0;" parent="1" vertex="1">
          <mxGeometry x="280" y="280" width="30" height="40" as="geometry" />
        </mxCell>
        <mxCell id="Rw02Lwgvao5xvRSZ4GDr-6" style="edgeStyle=orthogonalEdgeStyle;rounded=0;orthogonalLoop=1;jettySize=auto;html=1;exitX=1;exitY=0.5;exitDx=0;exitDy=0;entryX=0;entryY=0.5;entryDx=0;entryDy=0;fillColor=#f8cecc;strokeColor=#b85450;" edge="1" parent="1" source="4VY2o60xxXtO9w1z9V4P-11" target="4VY2o60xxXtO9w1z9V4P-19">
          <mxGeometry relative="1" as="geometry" />
        </mxCell>
        <mxCell id="4VY2o60xxXtO9w1z9V4P-11" value="q" style="text;html=1;strokeColor=none;fillColor=none;align=center;verticalAlign=middle;whiteSpace=wrap;rounded=0;" parent="1" vertex="1">
          <mxGeometry x="410" y="265" width="30" height="30" as="geometry" />
        </mxCell>
        <mxCell id="4VY2o60xxXtO9w1z9V4P-12" value="LO" style="rounded=0;whiteSpace=wrap;html=1;fillColor=#f8cecc;strokeColor=#b85450;" parent="1" vertex="1">
          <mxGeometry x="280" y="440" width="160" height="80" as="geometry" />
        </mxCell>
        <mxCell id="Rw02Lwgvao5xvRSZ4GDr-5" style="edgeStyle=orthogonalEdgeStyle;rounded=0;orthogonalLoop=1;jettySize=auto;html=1;entryX=0;entryY=0.5;entryDx=0;entryDy=0;fillColor=#f8cecc;strokeColor=#b85450;" edge="1" parent="1" target="4VY2o60xxXtO9w1z9V4P-13">
          <mxGeometry relative="1" as="geometry">
            <mxPoint x="250" y="370" as="sourcePoint" />
            <Array as="points">
              <mxPoint x="250" y="380" />
              <mxPoint x="250" y="455" />
            </Array>
          </mxGeometry>
        </mxCell>
        <mxCell id="4VY2o60xxXtO9w1z9V4P-13" value="d" style="text;html=1;strokeColor=none;fillColor=none;align=center;verticalAlign=middle;whiteSpace=wrap;rounded=0;" parent="1" vertex="1">
          <mxGeometry x="280" y="440" width="30" height="30" as="geometry" />
        </mxCell>
        <mxCell id="4VY2o60xxXtO9w1z9V4P-14" value="we" style="text;html=1;strokeColor=none;fillColor=none;align=center;verticalAlign=middle;whiteSpace=wrap;rounded=0;" parent="1" vertex="1">
          <mxGeometry x="280" y="500" width="30" height="20" as="geometry" />
        </mxCell>
        <mxCell id="4VY2o60xxXtO9w1z9V4P-15" value="Clk" style="text;html=1;strokeColor=none;fillColor=none;align=center;verticalAlign=middle;whiteSpace=wrap;rounded=0;" parent="1" vertex="1">
          <mxGeometry x="340" y="310" width="40" height="10" as="geometry" />
        </mxCell>
        <mxCell id="Rw02Lwgvao5xvRSZ4GDr-3" style="edgeStyle=orthogonalEdgeStyle;rounded=0;orthogonalLoop=1;jettySize=auto;html=1;entryX=0.5;entryY=1;entryDx=0;entryDy=0;fillColor=#f8cecc;strokeColor=#b85450;" edge="1" parent="1" target="4VY2o60xxXtO9w1z9V4P-16">
          <mxGeometry relative="1" as="geometry">
            <mxPoint x="-80" y="330" as="sourcePoint" />
            <Array as="points">
              <mxPoint x="-80" y="540" />
              <mxPoint x="360" y="540" />
            </Array>
          </mxGeometry>
        </mxCell>
        <mxCell id="4VY2o60xxXtO9w1z9V4P-16" value="Clk" style="text;html=1;strokeColor=none;fillColor=none;align=center;verticalAlign=middle;whiteSpace=wrap;rounded=0;" parent="1" vertex="1">
          <mxGeometry x="340" y="510" width="40" height="10" as="geometry" />
        </mxCell>
        <mxCell id="Rw02Lwgvao5xvRSZ4GDr-7" style="edgeStyle=orthogonalEdgeStyle;rounded=0;orthogonalLoop=1;jettySize=auto;html=1;exitX=1;exitY=0.5;exitDx=0;exitDy=0;entryX=0;entryY=0.5;entryDx=0;entryDy=0;fillColor=#f8cecc;strokeColor=#b85450;" edge="1" parent="1" source="4VY2o60xxXtO9w1z9V4P-17" target="4VY2o60xxXtO9w1z9V4P-20">
          <mxGeometry relative="1" as="geometry" />
        </mxCell>
        <mxCell id="4VY2o60xxXtO9w1z9V4P-17" value="q" style="text;html=1;strokeColor=none;fillColor=none;align=center;verticalAlign=middle;whiteSpace=wrap;rounded=0;" parent="1" vertex="1">
          <mxGeometry x="420" y="460" width="20" height="30" as="geometry" />
        </mxCell>
        <mxCell id="4VY2o60xxXtO9w1z9V4P-18" value="Mux&lt;br&gt;MULT_mux" style="rounded=0;whiteSpace=wrap;html=1;fillColor=#f8cecc;strokeColor=#b85450;" parent="1" vertex="1">
          <mxGeometry x="520" y="360" width="160" height="80" as="geometry" />
        </mxCell>
        <mxCell id="4VY2o60xxXtO9w1z9V4P-19" value="a" style="text;html=1;strokeColor=none;fillColor=none;align=center;verticalAlign=middle;whiteSpace=wrap;rounded=0;" parent="1" vertex="1">
          <mxGeometry x="520" y="360" width="40" height="30" as="geometry" />
        </mxCell>
        <mxCell id="4VY2o60xxXtO9w1z9V4P-20" value="b" style="text;html=1;strokeColor=none;fillColor=none;align=center;verticalAlign=middle;whiteSpace=wrap;rounded=0;" parent="1" vertex="1">
          <mxGeometry x="520" y="410" width="40" height="30" as="geometry" />
        </mxCell>
        <mxCell id="4VY2o60xxXtO9w1z9V4P-21" value="y" style="text;html=1;strokeColor=none;fillColor=none;align=center;verticalAlign=middle;whiteSpace=wrap;rounded=0;" parent="1" vertex="1">
          <mxGeometry x="660" y="370" width="20" height="70" as="geometry" />
        </mxCell>
        <mxCell id="Rw02Lwgvao5xvRSZ4GDr-20" style="edgeStyle=orthogonalEdgeStyle;rounded=0;orthogonalLoop=1;jettySize=auto;html=1;exitX=0.5;exitY=0;exitDx=0;exitDy=0;entryX=0.5;entryY=1;entryDx=0;entryDy=0;fillColor=#f8cecc;strokeColor=#b85450;" edge="1" parent="1" source="Rw02Lwgvao5xvRSZ4GDr-19" target="4VY2o60xxXtO9w1z9V4P-22">
          <mxGeometry relative="1" as="geometry" />
        </mxCell>
        <mxCell id="4VY2o60xxXtO9w1z9V4P-22" value="Sel" style="text;html=1;strokeColor=none;fillColor=none;align=center;verticalAlign=middle;whiteSpace=wrap;rounded=0;" parent="1" vertex="1">
          <mxGeometry x="580" y="420" width="40" height="20" as="geometry" />
        </mxCell>
        <mxCell id="Rw02Lwgvao5xvRSZ4GDr-2" style="edgeStyle=orthogonalEdgeStyle;rounded=0;orthogonalLoop=1;jettySize=auto;html=1;exitX=0.5;exitY=1;exitDx=0;exitDy=0;entryX=0.5;entryY=1;entryDx=0;entryDy=0;fillColor=#f8cecc;strokeColor=#b85450;" edge="1" parent="1" source="Rw02Lwgvao5xvRSZ4GDr-1" target="4VY2o60xxXtO9w1z9V4P-15">
          <mxGeometry relative="1" as="geometry" />
        </mxCell>
        <mxCell id="Rw02Lwgvao5xvRSZ4GDr-1" value="clk" style="text;html=1;strokeColor=none;fillColor=none;align=center;verticalAlign=middle;whiteSpace=wrap;rounded=0;" vertex="1" parent="1">
          <mxGeometry x="-100" y="230" width="40" height="20" as="geometry" />
        </mxCell>
        <mxCell id="Rw02Lwgvao5xvRSZ4GDr-8" value="mult_out&lt;br&gt;[63:0]" style="text;html=1;align=center;verticalAlign=middle;whiteSpace=wrap;rounded=0;" vertex="1" parent="1">
          <mxGeometry x="200" y="360" width="50" height="20" as="geometry" />
        </mxCell>
        <mxCell id="Rw02Lwgvao5xvRSZ4GDr-9" value="mult_out&lt;br&gt;[31:0]" style="text;html=1;align=center;verticalAlign=middle;whiteSpace=wrap;rounded=0;" vertex="1" parent="1">
          <mxGeometry x="200" y="450" width="50" height="20" as="geometry" />
        </mxCell>
        <mxCell id="Rw02Lwgvao5xvRSZ4GDr-10" value="mult_out&lt;br&gt;[63:32]" style="text;html=1;align=center;verticalAlign=middle;whiteSpace=wrap;rounded=0;" vertex="1" parent="1">
          <mxGeometry x="200" y="240" width="50" height="20" as="geometry" />
        </mxCell>
        <mxCell id="Rw02Lwgvao5xvRSZ4GDr-12" style="edgeStyle=orthogonalEdgeStyle;rounded=0;orthogonalLoop=1;jettySize=auto;html=1;exitX=1;exitY=0.75;exitDx=0;exitDy=0;entryX=0;entryY=0.25;entryDx=0;entryDy=0;fillColor=#f8cecc;strokeColor=#b85450;" edge="1" parent="1" source="Rw02Lwgvao5xvRSZ4GDr-11" target="4VY2o60xxXtO9w1z9V4P-14">
          <mxGeometry relative="1" as="geometry" />
        </mxCell>
        <mxCell id="Rw02Lwgvao5xvRSZ4GDr-11" value="mult_we" style="text;html=1;strokeColor=none;fillColor=none;align=center;verticalAlign=middle;whiteSpace=wrap;rounded=0;" vertex="1" parent="1">
          <mxGeometry x="-160" y="490" width="40" height="20" as="geometry" />
        </mxCell>
        <mxCell id="Rw02Lwgvao5xvRSZ4GDr-16" style="edgeStyle=orthogonalEdgeStyle;rounded=0;orthogonalLoop=1;jettySize=auto;html=1;exitX=0.5;exitY=1;exitDx=0;exitDy=0;entryX=0;entryY=0.5;entryDx=0;entryDy=0;fillColor=#f8cecc;strokeColor=#b85450;" edge="1" parent="1" source="Rw02Lwgvao5xvRSZ4GDr-14" target="4VY2o60xxXtO9w1z9V4P-5">
          <mxGeometry relative="1" as="geometry" />
        </mxCell>
        <mxCell id="Rw02Lwgvao5xvRSZ4GDr-14" value="rd1&lt;br&gt;[31:0]" style="text;html=1;strokeColor=none;fillColor=none;align=center;verticalAlign=middle;whiteSpace=wrap;rounded=0;" vertex="1" parent="1">
          <mxGeometry x="-40" y="170" width="40" height="30" as="geometry" />
        </mxCell>
        <mxCell id="Rw02Lwgvao5xvRSZ4GDr-18" style="edgeStyle=orthogonalEdgeStyle;rounded=0;orthogonalLoop=1;jettySize=auto;html=1;exitX=0.5;exitY=1;exitDx=0;exitDy=0;entryX=0;entryY=0.5;entryDx=0;entryDy=0;fillColor=#f8cecc;strokeColor=#b85450;" edge="1" parent="1" source="Rw02Lwgvao5xvRSZ4GDr-17" target="4VY2o60xxXtO9w1z9V4P-6">
          <mxGeometry relative="1" as="geometry" />
        </mxCell>
        <mxCell id="Rw02Lwgvao5xvRSZ4GDr-17" value="rd2&lt;br&gt;[31:0]" style="text;html=1;strokeColor=none;fillColor=none;align=center;verticalAlign=middle;whiteSpace=wrap;rounded=0;" vertex="1" parent="1">
          <mxGeometry x="-150" y="290" width="40" height="30" as="geometry" />
        </mxCell>
        <mxCell id="Rw02Lwgvao5xvRSZ4GDr-19" value="sel" style="text;html=1;strokeColor=none;fillColor=none;align=center;verticalAlign=middle;whiteSpace=wrap;rounded=0;" vertex="1" parent="1">
          <mxGeometry x="580" y="510" width="40" height="20" as="geometry" />
        </mxCell>
        <mxCell id="Rw02Lwgvao5xvRSZ4GDr-22" value="" style="endArrow=none;html=1;exitX=1;exitY=0.5;exitDx=0;exitDy=0;fillColor=#f8cecc;strokeColor=#b85450;" edge="1" parent="1" source="4VY2o60xxXtO9w1z9V4P-21">
          <mxGeometry width="50" height="50" relative="1" as="geometry">
            <mxPoint x="210" y="440" as="sourcePoint" />
            <mxPoint x="720" y="600" as="targetPoint" />
            <Array as="points">
              <mxPoint x="720" y="405" />
            </Array>
          </mxGeometry>
        </mxCell>
        <mxCell id="Rw02Lwgvao5xvRSZ4GDr-23" value="mult_result[31:0]" style="text;html=1;strokeColor=none;fillColor=none;align=center;verticalAlign=middle;whiteSpace=wrap;rounded=0;" vertex="1" parent="1">
          <mxGeometry x="700" y="600" width="40" height="20" as="geometry" />
        </mxCell>
      </root>
    </mxGraphModel>
  </diagram>
</mxfile>
